HIERARCHY
ROOT newVegas:Hips
{
	OFFSET 0.000000 96.479958 0.000000
	CHANNELS 6 Xposition Yposition Zposition Xrotation Yrotation Zrotation
	JOINT newVegas:Pelvis
	{
		OFFSET 0.000000 0.000000 0.000000
		CHANNELS 3 Xrotation Yrotation Zrotation
		JOINT newVegas:LeftUpLeg
		{
			OFFSET 18.735201 -5.666702 -4.541200
			CHANNELS 3 Xrotation Yrotation Zrotation
			JOINT newVegas:LeftLeg
			{
				OFFSET -0.021200 -31.938179 0.493100
				CHANNELS 3 Xrotation Yrotation Zrotation
				JOINT newVegas:LeftFoot
				{
					OFFSET 0.021200 -31.938179 -4.336299
					CHANNELS 3 Xrotation Yrotation Zrotation
					JOINT newVegas:LeftToeBase
					{
						OFFSET 0.943001 -26.722000 15.023500
						CHANNELS 3 Xrotation Yrotation Zrotation
						End Site
						{
							OFFSET 0.000000 30.670183 0.000000
						}
					}
				}
				JOINT newVegas:Left_PantLeg
				{
					OFFSET 0.663870 -9.044666 -1.108900
					CHANNELS 3 Xrotation Yrotation Zrotation
					End Site
					{
						OFFSET 1.415995 20.635357 0.000000
					}
				}
			}
		}
		JOINT newVegas:RightUpLeg
		{
			OFFSET -18.735201 -5.666702 -4.541200
			CHANNELS 3 Xrotation Yrotation Zrotation
			JOINT newVegas:RightLeg
			{
				OFFSET 0.018946 -31.938133 0.493100
				CHANNELS 3 Xrotation Yrotation Zrotation
				JOINT newVegas:RightFoot
				{
					OFFSET -0.018946 -31.938126 -4.336299
					CHANNELS 3 Xrotation Yrotation Zrotation
					JOINT newVegas:RightToeBase
					{
						OFFSET -0.943001 -26.722004 15.023500
						CHANNELS 3 Xrotation Yrotation Zrotation
						End Site
						{
							OFFSET 0.000000 30.670187 0.000000
						}
					}
				}
				JOINT newVegas:Right_PantLeg
				{
					OFFSET -0.661674 -9.044716 -1.108900
					CHANNELS 3 Xrotation Yrotation Zrotation
					End Site
					{
						OFFSET -1.415958 20.635269 0.000000
					}
				}
			}
		}
	}
	JOINT newVegas:Spine
	{
		OFFSET 0.000000 10.199997 -0.299500
		CHANNELS 3 Xrotation Yrotation Zrotation
		JOINT newVegas:Spine1
		{
			OFFSET 0.000000 11.900002 -1.516600
			CHANNELS 3 Xrotation Yrotation Zrotation
			JOINT newVegas:Spine2
			{
				OFFSET 0.000000 13.600006 -2.842500
				CHANNELS 3 Xrotation Yrotation Zrotation
				JOINT newVegas:Neck
				{
					OFFSET 0.000000 9.624100 -2.890100
					CHANNELS 3 Xrotation Yrotation Zrotation
					JOINT newVegas:Head
					{
						OFFSET 0.000000 14.068802 -1.351900
						CHANNELS 3 Xrotation Yrotation Zrotation
						JOINT newVegas:Hair_Back
						{
							OFFSET 0.000000 3.231903 -17.524799
							CHANNELS 3 Xrotation Yrotation Zrotation
							End Site
							{
								OFFSET 0.000000 19.849884 0.000000
							}
						}
						JOINT newVegas:Hair_Front
						{
							OFFSET 0.000000 31.260406 4.573800
							CHANNELS 3 Xrotation Yrotation Zrotation
							JOINT newVegas:Hair_Front1
							{
								OFFSET 0.000000 2.284103 11.993300
								CHANNELS 3 Xrotation Yrotation Zrotation
								JOINT newVegas:Hair_Front2
								{
									OFFSET 0.000000 2.284103 11.993300
									CHANNELS 3 Xrotation Yrotation Zrotation
									End Site
									{
										OFFSET 0.000000 12.208862 0.000000
									}
								}
							}
						}
						JOINT newVegas:Jowel
						{
							OFFSET 0.000000 -7.458206 6.864100
							CHANNELS 3 Xrotation Yrotation Zrotation
							End Site
							{
								OFFSET 0.000000 19.849884 0.000000
							}
						}
					}
				}
				JOINT newVegas:LeftShoulder
				{
					OFFSET 15.263000 10.923401 -0.547700
					CHANNELS 3 Xrotation Yrotation Zrotation
					JOINT newVegas:LeftArm
					{
						OFFSET 25.438599 -2.830597 -13.032500
						CHANNELS 3 Xrotation Yrotation Zrotation
						JOINT newVegas:LeftForeArm
						{
							OFFSET 29.960503 0.000000 0.000000
							CHANNELS 3 Xrotation Yrotation Zrotation
							JOINT newVegas:LeftHand
							{
								OFFSET 27.849251 0.000000 0.000000
								CHANNELS 3 Xrotation Yrotation Zrotation
								JOINT newVegas:LeftHandThumb1
								{
									OFFSET 4.487587 -3.305161 6.305391
									CHANNELS 3 Xrotation Yrotation Zrotation
									JOINT newVegas:LeftHandThumb2
									{
										OFFSET 5.480453 -3.164139 3.164143
										CHANNELS 3 Xrotation Yrotation Zrotation
										JOINT newVegas:LeftHandThumb3
										{
											OFFSET 5.159721 -2.978973 2.978967
											CHANNELS 3 Xrotation Yrotation Zrotation
											End Site
											{
												OFFSET 2.494507 5.926697 1.738678
											}
										}
									}
								}
								JOINT newVegas:LeftHandIndex1
								{
									OFFSET 18.578728 -0.527832 5.208049
									CHANNELS 3 Xrotation Yrotation Zrotation
									JOINT newVegas:LeftHandIndex2
									{
										OFFSET 3.192009 0.000000 0.000000
										CHANNELS 3 Xrotation Yrotation Zrotation
										JOINT newVegas:LeftHandIndex3
										{
											OFFSET 3.835129 0.000000 0.000000
											CHANNELS 3 Xrotation Yrotation Zrotation
											End Site
											{
												OFFSET -0.034599 3.816971 0.371180
											}
										}
									}
								}
								JOINT newVegas:LeftHandMiddle1
								{
									OFFSET 18.476105 0.000000 0.000000
									CHANNELS 3 Xrotation Yrotation Zrotation
									JOINT newVegas:LeftHandMiddle2
									{
										OFFSET 3.324875 0.000000 0.000000
										CHANNELS 3 Xrotation Yrotation Zrotation
										JOINT newVegas:LeftHandMiddle3
										{
											OFFSET 4.596550 0.000000 0.000000
											CHANNELS 3 Xrotation Yrotation Zrotation
											End Site
											{
												OFFSET 0.057701 4.578827 0.399218
											}
										}
									}
								}
								JOINT newVegas:LeftHandRing1
								{
									OFFSET 17.732719 0.121887 -4.201567
									CHANNELS 3 Xrotation Yrotation Zrotation
									JOINT newVegas:LeftHandRing2
									{
										OFFSET 2.733170 0.000000 0.000000
										CHANNELS 3 Xrotation Yrotation Zrotation
										JOINT newVegas:LeftHandRing3
										{
											OFFSET 3.178268 0.000000 0.000000
											CHANNELS 3 Xrotation Yrotation Zrotation
											End Site
											{
												OFFSET 0.119102 3.170624 0.185394
											}
										}
									}
								}
								JOINT newVegas:LeftHandPinky1
								{
									OFFSET 15.989624 -0.606689 -7.535461
									CHANNELS 3 Xrotation Yrotation Zrotation
									JOINT newVegas:LeftHandPinky2
									{
										OFFSET 2.538986 0.000000 0.000000
										CHANNELS 3 Xrotation Yrotation Zrotation
										JOINT newVegas:LeftHandPinky3
										{
											OFFSET 2.593102 0.000000 0.000000
											CHANNELS 3 Xrotation Yrotation Zrotation
											End Site
											{
												OFFSET -0.150902 2.584198 0.152708
											}
										}
									}
								}
							}
							JOINT newVegas:Left_Sleeve
							{
								OFFSET 0.267448 -0.649796 0.577675
								CHANNELS 3 Xrotation Yrotation Zrotation
								End Site
								{
									OFFSET 0.000000 15.991241 0.000000
								}
							}
							JOINT newVegas:Left_CapeC
							{
								OFFSET 15.715958 -8.608795 -6.935905
								CHANNELS 3 Xrotation Yrotation Zrotation
								JOINT newVegas:Left_CapeC1
								{
									OFFSET 0.000000 -8.688499 0.000000
									CHANNELS 3 Xrotation Yrotation Zrotation
									End Site
									{
										OFFSET 0.000000 8.688499 0.000000
									}
								}
							}
						}
						JOINT newVegas:Left_CapeB
						{
							OFFSET 26.118385 -8.608795 -7.079235
							CHANNELS 3 Xrotation Yrotation Zrotation
							JOINT newVegas:Left_CapeB1
							{
								OFFSET 0.000000 -8.688499 0.000000
								CHANNELS 3 Xrotation Yrotation Zrotation
								End Site
								{
									OFFSET 0.000000 8.688499 0.000000
								}
							}
						}
						JOINT newVegas:Left_CapeA
						{
							OFFSET 5.115639 -8.608795 -10.395809
							CHANNELS 3 Xrotation Yrotation Zrotation
							JOINT newVegas:Left_CapeA1
							{
								OFFSET 0.000000 -8.688499 0.000000
								CHANNELS 3 Xrotation Yrotation Zrotation
								End Site
								{
									OFFSET 0.000000 8.688499 0.000000
								}
							}
						}
					}
				}
				JOINT newVegas:RightShoulder
				{
					OFFSET -15.263000 10.923401 -0.547700
					CHANNELS 3 Xrotation Yrotation Zrotation
					JOINT newVegas:RightArm
					{
						OFFSET -25.438599 -2.830597 -13.032500
						CHANNELS 3 Xrotation Yrotation Zrotation
						JOINT newVegas:RightForeArm
						{
							OFFSET -29.960503 0.000000 0.000000
							CHANNELS 3 Xrotation Yrotation Zrotation
							JOINT newVegas:RightHand
							{
								OFFSET -27.849251 0.000000 0.000000
								CHANNELS 3 Xrotation Yrotation Zrotation
								JOINT newVegas:RightHandThumb1
								{
									OFFSET -4.487587 -3.305161 6.305391
									CHANNELS 3 Xrotation Yrotation Zrotation
									JOINT newVegas:RightHandThumb2
									{
										OFFSET -5.480453 -3.164139 3.164143
										CHANNELS 3 Xrotation Yrotation Zrotation
										JOINT newVegas:RightHandThumb3
										{
											OFFSET -5.159721 -2.978973 2.978967
											CHANNELS 3 Xrotation Yrotation Zrotation
											End Site
											{
												OFFSET -2.494507 5.926697 1.738678
											}
										}
									}
								}
								JOINT newVegas:RightHandIndex1
								{
									OFFSET -18.578728 -0.527832 5.208049
									CHANNELS 3 Xrotation Yrotation Zrotation
									JOINT newVegas:RightHandIndex2
									{
										OFFSET -3.192009 0.000000 0.000000
										CHANNELS 3 Xrotation Yrotation Zrotation
										JOINT newVegas:RightHandIndex3
										{
											OFFSET -3.835129 0.000000 0.000000
											CHANNELS 3 Xrotation Yrotation Zrotation
											End Site
											{
												OFFSET 0.034599 3.816971 0.371180
											}
										}
									}
								}
								JOINT newVegas:RightHandMiddle1
								{
									OFFSET -18.476105 0.000000 0.000000
									CHANNELS 3 Xrotation Yrotation Zrotation
									JOINT newVegas:RightHandMiddle2
									{
										OFFSET -3.324875 0.000000 0.000000
										CHANNELS 3 Xrotation Yrotation Zrotation
										JOINT newVegas:RightHandMiddle3
										{
											OFFSET -4.596550 0.000000 0.000000
											CHANNELS 3 Xrotation Yrotation Zrotation
											End Site
											{
												OFFSET -0.057701 4.578827 0.399218
											}
										}
									}
								}
								JOINT newVegas:RightHandRing1
								{
									OFFSET -17.732719 0.121887 -4.201567
									CHANNELS 3 Xrotation Yrotation Zrotation
									JOINT newVegas:RightHandRing2
									{
										OFFSET -2.733170 0.000000 0.000000
										CHANNELS 3 Xrotation Yrotation Zrotation
										JOINT newVegas:RightHandRing3
										{
											OFFSET -3.178268 0.000000 0.000000
											CHANNELS 3 Xrotation Yrotation Zrotation
											End Site
											{
												OFFSET -0.119102 3.170624 0.185394
											}
										}
									}
								}
								JOINT newVegas:RightHandPinky1
								{
									OFFSET -15.989624 -0.606689 -7.535461
									CHANNELS 3 Xrotation Yrotation Zrotation
									JOINT newVegas:RightHandPinky2
									{
										OFFSET -2.538986 0.000000 0.000000
										CHANNELS 3 Xrotation Yrotation Zrotation
										JOINT newVegas:RightHandPinky3
										{
											OFFSET -2.593102 0.000000 0.000000
											CHANNELS 3 Xrotation Yrotation Zrotation
											End Site
											{
												OFFSET 0.150902 2.584198 0.152708
											}
										}
									}
								}
							}
							JOINT newVegas:Right_CapeC
							{
								OFFSET -15.715958 -8.608795 -6.935905
								CHANNELS 3 Xrotation Yrotation Zrotation
								JOINT newVegas:Right_CapeC1
								{
									OFFSET 0.000000 -8.688499 0.000000
									CHANNELS 3 Xrotation Yrotation Zrotation
									End Site
									{
										OFFSET 0.000000 8.688499 0.000000
									}
								}
							}
							JOINT newVegas:Right_Sleeve
							{
								OFFSET -0.267448 -0.649994 0.577675
								CHANNELS 3 Xrotation Yrotation Zrotation
								End Site
								{
									OFFSET 0.000000 15.991302 0.000000
								}
							}
						}
						JOINT newVegas:Right_CapeA
						{
							OFFSET -5.115540 -8.608795 -10.395824
							CHANNELS 3 Xrotation Yrotation Zrotation
							JOINT newVegas:Right_CapeA1
							{
								OFFSET 0.000000 -8.688499 0.000000
								CHANNELS 3 Xrotation Yrotation Zrotation
								End Site
								{
									OFFSET 0.000000 8.688499 0.000000
								}
							}
						}
						JOINT newVegas:Right_CapeB
						{
							OFFSET -26.118187 -8.608795 -7.079266
							CHANNELS 3 Xrotation Yrotation Zrotation
							JOINT newVegas:Right_CapeB1
							{
								OFFSET 0.000000 -8.688499 0.000000
								CHANNELS 3 Xrotation Yrotation Zrotation
								End Site
								{
									OFFSET 0.000000 8.688499 0.000000
								}
							}
						}
					}
				}
				JOINT newVegas:Left_Collar
				{
					OFFSET 18.625099 8.655502 8.828100
					CHANNELS 3 Xrotation Yrotation Zrotation
					JOINT newVegas:Left_Collar1
					{
						OFFSET 14.783401 10.540405 -1.259500
						CHANNELS 3 Xrotation Yrotation Zrotation
						End Site
						{
							OFFSET 0.000000 18.199875 0.000000
						}
					}
				}
				JOINT newVegas:Collar_Back
				{
					OFFSET 0.000000 15.630707 -20.132601
					CHANNELS 3 Xrotation Yrotation Zrotation
					End Site
					{
						OFFSET 0.000000 22.523010 0.000000
					}
				}
				JOINT newVegas:Left_Peck
				{
					OFFSET 17.239599 -5.132599 25.482599
					CHANNELS 3 Xrotation Yrotation Zrotation
					End Site
					{
						OFFSET 0.000000 22.523010 0.000000
					}
				}
				JOINT newVegas:Right_Peck
				{
					OFFSET -17.239599 -5.132202 25.482599
					CHANNELS 3 Xrotation Yrotation Zrotation
					End Site
					{
						OFFSET 0.000000 22.523010 0.000000
					}
				}
				JOINT newVegas:Right_Collar
				{
					OFFSET -18.625099 8.655792 8.828100
					CHANNELS 3 Xrotation Yrotation Zrotation
					JOINT newVegas:Right_Collar1
					{
						OFFSET -14.783401 10.539993 -1.259500
						CHANNELS 3 Xrotation Yrotation Zrotation
						End Site
						{
							OFFSET 0.000000 18.199631 0.000000
						}
					}
				}
			}
		}
		JOINT newVegas:Belly
		{
			OFFSET 0.000000 -6.540398 9.014299
			CHANNELS 3 Xrotation Yrotation Zrotation
			End Site
			{
				OFFSET 0.000000 11.566666 0.000000
			}
		}
	}
	JOINT newVegas:ElvisFacialAnim_Joint
	{
		OFFSET 1.000000 -95.330101 -8.825800
		CHANNELS 3 Xrotation Yrotation Zrotation
		End Site
		{
			OFFSET 0.000000 35.315800 0.000000
		}
	}
}
MOTION
Frames: 4
Frame Time: 0.033333
-3.663490 82.956192 1.368918 9.153683 -63.011241 7.683895 0.000000 0.000001 0.000000 -41.860474 7.156729 32.736048 54.673438 -7.896404 0.677283 -15.831006 3.433782 -14.789410 0.000000 -0.000001 -0.000000 0.000001 0.000003 -0.000001 -29.284556 -4.608273 -23.452580 54.656325 5.056848 -2.605226 -30.023695 -1.994717 19.561307 -0.000000 0.000001 0.000000 0.000002 -0.000000 0.000000 5.499513 2.190151 -0.617759 6.950501 2.825055 1.442044 6.846268 3.146631 1.423668 1.512842 4.294534 -1.589101 1.512829 4.294578 -1.589117 -0.000003 -0.000005 0.000002 1.512755 4.294554 -1.589102 1.512911 4.294543 -1.589115 -0.000003 0.000001 -0.000001 -0.000003 -0.000005 0.000001 0.622135 -5.047092 -22.562470 -31.897677 8.596281 -37.730894 0.002355 -102.039447 0.002304 14.524556 -1.957176 16.423625 4.891669 7.994765 1.883996 10.475077 36.544323 -16.206439 0.000002 0.000002 -0.000006 7.775678 6.956308 -86.152707 10.250105 6.003548 -119.372063 -0.000001 0.000003 -0.000002 6.544546 6.872986 -87.274306 9.404145 6.404045 -111.556032 0.000001 -0.000001 0.000001 3.127848 6.869444 -89.819672 9.007614 6.545889 -108.040725 -0.000001 -0.000001 0.000002 1.160395 7.315438 -94.148434 8.017659 2.700439 -99.510699 -0.000003 -0.000003 0.000002 0.000002 -0.000001 -0.000002 0.000002 -0.000001 -0.000002 0.000001 -0.000001 -0.000002 0.000001 -0.000001 0.000001 0.000001 -0.000001 -0.000001 0.000001 -0.000001 0.000001 0.000000 -0.000000 0.000001 1.215786 8.765840 -1.393338 -42.452009 28.954746 71.504533 0.000035 121.540949 -0.000016 -12.051117 2.135464 1.850102 2.101981 -10.083005 3.633753 25.660737 -30.716727 6.844837 -0.000000 0.000000 0.000001 9.556187 -7.137713 86.157919 10.350218 -6.061964 119.375533 -0.000002 -0.000001 -0.000001 6.610150 -6.940040 87.289442 9.494148 -6.467115 111.542583 -0.000001 -0.000003 0.000002 1.946415 -7.142774 92.181141 8.379086 -6.799992 101.912317 0.000002 0.000002 0.000001 -2.850663 -7.675002 94.127499 8.100928 -6.852399 99.572690 0.000002 0.000003 0.000000 0.000001 -0.000001 0.000001 0.000001 -0.000001 -0.000000 0.000001 -0.000001 0.000000 -0.000001 0.000001 0.000001 -0.000001 0.000002 0.000001 -0.000001 0.000001 0.000001 -0.000001 0.000002 0.000001 0.000003 -0.000001 -0.000000 0.000003 -0.000001 -0.000000 0.000003 -0.000001 -0.000000 0.000003 -0.000001 -0.000000 0.000003 -0.000001 -0.000000 0.000003 -0.000001 -0.000000 0.000003 -0.000001 -0.000000 0.000001 0.000002 -0.000000 0.000000 0.000001 0.000000 
-3.577662 82.949272 1.289169 9.047818 -62.916820 7.688353 0.000000 -0.000001 -0.000000 -41.885592 7.187652 32.663549 54.477872 -7.978504 0.638847 -15.590537 3.418454 -14.845946 -0.000000 0.000003 -0.000000 0.000000 0.000003 -0.000002 -29.377559 -4.508502 -23.456326 54.887240 4.988181 -2.657679 -30.123013 -2.076918 19.488697 0.000000 0.000001 0.000000 0.000001 -0.000001 -0.000000 5.495815 2.212919 -0.587381 6.946620 2.854656 1.467778 6.841440 3.175711 1.449536 1.551195 4.262119 -1.535494 1.551190 4.262085 -1.535484 0.000001 -0.000001 -0.000000 1.551255 4.262120 -1.535503 1.551196 4.262149 -1.535508 -0.000000 -0.000000 0.000003 0.000001 -0.000001 -0.000000 0.624575 -5.027394 -22.119177 -31.601612 8.423420 -38.359811 0.001764 -101.987285 0.001751 14.717060 -1.840218 16.556691 4.891670 7.994769 1.883996 10.475078 36.544323 -16.206439 -0.000001 0.000007 -0.000003 7.775680 6.956307 -86.152700 10.250111 6.003550 -119.372063 -0.000002 -0.000003 0.000001 6.544551 6.872986 -87.274313 9.404146 6.404043 -111.556032 0.000004 -0.000000 -0.000001 3.127850 6.869441 -89.819672 9.007615 6.545888 -108.040725 0.000000 0.000001 -0.000001 1.160402 7.315443 -94.148434 8.017662 2.700433 -99.510699 -0.000002 -0.000003 -0.000000 -0.000000 -0.000001 -0.000002 -0.000000 -0.000001 -0.000002 -0.000001 -0.000001 -0.000002 -0.000000 -0.000001 -0.000004 0.000001 -0.000001 -0.000006 -0.000000 -0.000001 -0.000004 -0.000001 0.000000 -0.000005 1.225066 8.771378 -1.506487 -42.449291 28.965336 71.503734 -0.000002 121.431871 -0.000002 -11.994283 2.230690 1.866429 2.101981 -10.083004 3.633755 25.660744 -30.716727 6.844833 0.000001 0.000000 0.000001 9.556189 -7.137707 86.157919 10.350213 -6.061970 119.375533 0.000003 0.000002 0.000001 6.610159 -6.940037 87.289442 9.494147 -6.467118 111.542597 -0.000002 0.000003 0.000001 1.946414 -7.142768 92.181141 8.379082 -6.799995 101.912310 0.000002 -0.000004 -0.000002 -2.850661 -7.674997 94.127499 8.100932 -6.852397 99.572683 0.000002 0.000002 -0.000000 -0.000002 0.000001 -0.000001 -0.000002 -0.000001 0.000000 -0.000002 0.000001 -0.000001 -0.000001 0.000000 0.000001 -0.000001 0.000001 0.000001 -0.000001 0.000000 0.000001 -0.000001 0.000001 0.000001 -0.000000 -0.000000 -0.000001 -0.000000 -0.000000 -0.000001 -0.000000 -0.000000 -0.000001 -0.000000 -0.000000 -0.000001 -0.000000 -0.000000 -0.000001 -0.000000 -0.000000 -0.000001 -0.000000 -0.000000 -0.000001 -0.000000 -0.000001 -0.000000 0.000000 -0.000001 -0.000000 
-3.478857 82.955269 1.176832 9.035387 -62.871133 7.816106 -0.000000 0.000001 -0.000000 -41.844413 7.251603 32.581126 54.121289 -8.014255 0.573608 -15.266019 3.414275 -14.996744 -0.000000 0.000002 -0.000000 0.000001 0.000001 0.000000 -29.579374 -4.347017 -23.475849 55.136900 4.944559 -2.717529 -30.154134 -2.149844 19.442904 0.000000 0.000002 0.000000 -0.000001 -0.000002 -0.000002 5.494149 2.227716 -0.549274 6.947288 2.873475 1.496434 6.841736 3.193569 1.478417 1.589367 4.226438 -1.458486 1.589371 4.226436 -1.458470 -0.000002 -0.000000 -0.000001 1.589442 4.226449 -1.458490 1.589304 4.226431 -1.458475 -0.000001 -0.000001 -0.000001 -0.000002 -0.000000 -0.000000 0.629226 -4.990369 -21.641446 -31.345319 8.299961 -39.007122 -0.002373 -101.800671 -0.002355 14.909678 -1.632450 16.890889 4.891668 7.994766 1.883995 10.475078 36.544323 -16.206441 0.000004 0.000003 -0.000003 7.775680 6.956306 -86.152700 10.250106 6.003552 -119.372063 -0.000003 -0.000001 -0.000002 6.544550 6.872985 -87.274313 9.404151 6.404047 -111.556039 0.000004 -0.000003 0.000001 3.127847 6.869446 -89.819672 9.007615 6.545893 -108.040725 0.000003 0.000001 0.000001 1.160399 7.315441 -94.148434 8.017660 2.700438 -99.510706 -0.000001 -0.000004 0.000003 -0.000003 -0.000001 -0.000000 -0.000003 -0.000001 -0.000000 -0.000003 -0.000001 0.000000 -0.000002 -0.000001 -0.000002 -0.000001 -0.000001 -0.000003 -0.000002 -0.000001 -0.000002 -0.000003 -0.000001 -0.000002 1.239457 8.759485 -1.691411 -42.393765 28.988108 71.505442 0.000033 121.389086 -0.000024 -11.863085 2.346846 1.752184 2.101987 -10.083007 3.633755 25.660737 -30.716730 6.844832 -0.000003 -0.000004 0.000001 9.556189 -7.137716 86.157919 10.350214 -6.061964 119.375533 0.000003 0.000004 0.000001 6.610156 -6.940046 87.289442 9.494147 -6.467120 111.542590 -0.000000 0.000001 0.000003 1.946415 -7.142771 92.181148 8.379086 -6.799991 101.912310 0.000001 -0.000001 0.000001 -2.850661 -7.675004 94.127506 8.100928 -6.852396 99.572683 0.000002 -0.000004 -0.000001 -0.000002 0.000003 -0.000001 -0.000002 -0.000001 0.000001 -0.000002 0.000003 -0.000001 -0.000000 0.000000 0.000001 -0.000000 0.000001 0.000002 -0.000000 0.000000 0.000001 -0.000000 0.000000 0.000002 0.000002 0.000001 -0.000000 0.000002 0.000001 -0.000000 0.000002 0.000001 -0.000000 0.000002 0.000001 -0.000000 0.000002 0.000001 -0.000000 0.000002 0.000001 -0.000000 0.000002 0.000001 -0.000000 0.000000 0.000001 0.000000 -0.000000 0.000001 -0.000000 
-3.370331 82.988167 1.024220 9.140894 -62.907128 8.103715 0.000000 0.000000 0.000000 -41.677032 7.377280 32.499246 53.514583 -7.984580 0.454217 -14.826384 3.424803 -15.267583 -0.000000 0.000000 0.000000 0.000000 0.000003 -0.000000 -29.906950 -4.126316 -23.492571 55.397274 4.911567 -2.798805 -30.136335 -2.196559 19.383479 -0.000000 0.000001 -0.000000 -0.000000 0.000000 0.000003 5.493932 2.230363 -0.515274 6.949467 2.875583 1.521705 6.843864 3.195556 1.503796 1.623905 4.189065 -1.368154 1.623918 4.189060 -1.368161 0.000001 -0.000003 -0.000000 1.623841 4.189054 -1.368152 1.623995 4.189091 -1.368172 -0.000000 -0.000001 0.000001 0.000001 -0.000003 0.000001 0.635515 -4.938449 -21.132146 -31.146605 8.240015 -39.587664 0.003474 -101.417074 0.003433 15.103208 -1.384086 17.542422 4.891670 7.994760 1.884002 10.475080 36.544319 -16.206451 0.000001 0.000004 -0.000001 7.775678 6.956306 -86.152700 10.250108 6.003551 -119.372063 0.000001 -0.000000 -0.000000 6.544550 6.872985 -87.274313 9.404152 6.404045 -111.556039 -0.000002 -0.000005 0.000002 3.127852 6.869439 -89.819672 9.007614 6.545889 -108.040725 0.000004 0.000001 0.000001 1.160400 7.315444 -94.148434 8.017663 2.700438 -99.510699 -0.000000 -0.000005 0.000001 -0.000000 0.000002 -0.000001 -0.000000 0.000002 -0.000001 -0.000001 0.000002 -0.000001 -0.000001 0.000001 -0.000002 -0.000000 -0.000000 -0.000005 -0.000001 0.000001 -0.000002 -0.000002 0.000001 -0.000002 1.256692 8.747952 -1.915411 -42.296425 28.973396 71.483421 -0.000006 121.414003 -0.000010 -11.704571 2.437840 1.605555 2.101981 -10.083016 3.633754 25.660741 -30.716727 6.844832 0.000001 0.000000 0.000001 9.556189 -7.137718 86.157919 10.350217 -6.061968 119.375533 0.000000 0.000000 0.000002 6.610156 -6.940045 87.289442 9.494151 -6.467118 111.542590 0.000000 0.000003 0.000005 1.946414 -7.142780 92.181148 8.379089 -6.799995 101.912317 -0.000001 -0.000003 -0.000002 -2.850661 -7.675003 94.127506 8.100927 -6.852398 99.572683 -0.000001 -0.000000 0.000000 0.000000 0.000004 -0.000001 0.000000 0.000002 -0.000002 0.000000 0.000004 -0.000001 0.000001 -0.000003 0.000001 0.000001 -0.000002 0.000001 0.000001 -0.000003 0.000001 0.000001 -0.000002 0.000001 0.000001 -0.000002 0.000001 0.000001 -0.000002 0.000001 0.000001 -0.000002 0.000001 0.000001 -0.000002 0.000001 0.000001 -0.000002 0.000001 0.000001 -0.000002 0.000001 0.000001 -0.000002 0.000001 -0.000001 -0.000000 0.000000 0.000000 0.000000 0.000000 
